<svg xmlns="http://www.w3.org/2000/svg" width="60" height="24" viewBox="0 0 60 24" fill="none">
  <!-- First SVG -->
  <g>
    <path d="M16.9017 6.12874C18 7.25748 18 9.07416 18 12.7075V14.2925C18 17.9258 18 19.7425 16.9017 20.8713C15.8033 22 14.0355 22 10.5 22C6.96447 22 5.1967 22 4.09835 20.8713C3 19.7425 3 17.9258 3 14.2925V12.7075C3 9.07416 3 7.25748 4.09835 6.12874C5.1967 5 6.96447 5 10.5 5C14.0355 5 15.8033 5 16.9017 6.12874Z" stroke="#6B7280" stroke-width="1.5" stroke-linecap="round" stroke-linejoin="round"></path>
    <path d="M7.5 5.5V10.3693C7.5 11.3046 7.5 11.7722 7.78982 11.9396C8.35105 12.2638 9.4038 11.1823 9.90375 10.8567C10.1937 10.6678 10.3387 10.5734 10.5 10.5734C10.6613 10.5734 10.8063 10.6678 11.0962 10.8567C11.5962 11.1823 12.6489 12.2638 13.2102 11.9396C13.5 11.7722 13.5 11.3046 13.5 10.3693V5.5" stroke="#6B7280" stroke-width="1.5" stroke-linecap="round" stroke-linejoin="round"></path>
    <path d="M9 2H11C15.714 2 18.0711 2 19.5355 3.46447C21 4.92893 21 7.28595 21 12V18" stroke="#6B7280" stroke-width="1.5" stroke-linecap="round" stroke-linejoin="round"></path>
  </g>
  <!-- Second SVG -->
  <g transform="translate(28, 0)"> <!-- Increased padding -->
    <path d="M12 4.5L12 14.5M12 4.5C11.2998 4.5 9.99153 6.4943 9.5 7M12 4.5C12.7002 4.5 14.0085 6.4943 14.5 7" stroke="#6B7280" stroke-width="1.5" stroke-linecap="round" stroke-linejoin="round"></path>
    <path d="M20 16.5C20 18.982 19.482 19.5 17 19.5H7C4.518 19.5 4 18.982 4 16.5" stroke="#6B7280" stroke-width="1.5" stroke-linecap="round" stroke-linejoin="round"></path>
  </g>
</svg>
